<?xml version="1.0" encoding="iso-8859-1"?>
<!-- Uploaded to: SVG Repo, www.svgrepo.com, Generator: SVG Repo Mixer Tools -->
<svg fill="#000000" version="1.1" id="Layer_1" xmlns="http://www.w3.org/2000/svg" xmlns:xlink="http://www.w3.org/1999/xlink" 
	 viewBox="0 0 480 480" xml:space="preserve">
<g>
	<g>
		<path d="M440,0H40C17.944,0,0,17.944,0,40v136v280c0,13.232,10.768,24,24,24s24-10.768,24-24V352h384v104
			c0,13.232,10.768,24,24,24s24-10.768,24-24V176V40C480,17.944,462.056,0,440,0z M449.392,17.92
			c5.688,2.432,10.256,7,12.688,12.688l-6.08,6.08L443.312,24L449.392,17.92z M444.688,48L432,60.688L419.312,48L432,35.312
			L444.688,48z M395.312,72L408,59.312L420.688,72L408,84.688L395.312,72z M420.688,120L408,132.688L395.312,120L408,107.312
			L420.688,120z M396.688,96L384,108.688L371.312,96L384,83.312L396.688,96z M372.688,120L360,132.688L347.312,120L360,107.312
			L372.688,120z M360,84.688L347.312,72L360,59.312L372.688,72L360,84.688z M348.688,96L336,108.688L323.312,96L336,83.312
			L348.688,96z M324.688,120L312,132.688L299.312,120L312,107.312L324.688,120z M312,84.688L299.312,72L312,59.312L324.688,72
			L312,84.688z M300.688,96L288,108.688L275.312,96L288,83.312L300.688,96z M276.688,120L264,132.688L251.312,120L264,107.312
			L276.688,120z M264,84.688L251.312,72L264,59.312L276.688,72L264,84.688z M252.688,96L240,108.688L227.312,96L240,83.312
			L252.688,96z M228.688,120L216,132.688L203.312,120L216,107.312L228.688,120z M216,84.688L203.312,72L216,59.312L228.688,72
			L216,84.688z M204.688,96L192,108.688L179.312,96L192,83.312L204.688,96z M180.688,120L168,132.688L155.312,120L168,107.312
			L180.688,120z M168,84.688L155.312,72L168,59.312L180.688,72L168,84.688z M156.688,96L144,108.688L131.312,96L144,83.312
			L156.688,96z M132.688,120L120,132.688L107.312,120L120,107.312L132.688,120z M120,84.688L107.312,72L120,59.312L132.688,72
			L120,84.688z M108.688,96L96,108.688L83.312,96L96,83.312L108.688,96z M84.688,120L72,132.688L59.312,120L72,107.312L84.688,120z
			 M72,84.688L59.312,72L72,59.312L84.688,72L72,84.688z M60.688,96L48,108.688L35.312,96L48,83.312L60.688,96z M60.688,144
			L48,156.688L35.312,144L48,131.312L60.688,144z M72,155.312L84.688,168H59.312L72,155.312z M83.312,144L96,131.312L108.688,144
			L96,156.688L83.312,144z M120,155.312L132.688,168h-25.376L120,155.312z M131.312,144L144,131.312L156.688,144L144,156.688
			L131.312,144z M168,155.312L180.688,168h-25.376L168,155.312z M179.312,144L192,131.312L204.688,144L192,156.688L179.312,144z
			 M216,155.312L228.688,168h-25.376L216,155.312z M227.312,144L240,131.312L252.688,144L240,156.688L227.312,144z M264,155.312
			L276.688,168h-25.376L264,155.312z M275.312,144L288,131.312L300.688,144L288,156.688L275.312,144z M312,155.312L324.688,168
			h-25.376L312,155.312z M323.312,144L336,131.312L348.688,144L336,156.688L323.312,144z M360,155.312L372.688,168h-25.376
			L360,155.312z M371.312,144L384,131.312L396.688,144L384,156.688L371.312,144z M408,155.312L420.688,168h-25.376L408,155.312z
			 M419.312,144L432,131.312L444.688,144L432,156.688L419.312,144z M419.312,96L432,83.312L444.688,96L432,108.688L419.312,96z
			 M403.312,16h9.376l8,8L408,36.688L395.312,24L403.312,16z M396.688,48L384,60.688L371.312,48L384,35.312L396.688,48z M355.312,16
			h9.376l8,8L360,36.688L347.312,24L355.312,16z M348.688,48L336,60.688L323.312,48L336,35.312L348.688,48z M307.312,16h9.376l8,8
			L312,36.688L299.312,24L307.312,16z M300.688,48L288,60.688L275.312,48L288,35.312L300.688,48z M259.312,16h9.376l8,8L264,36.688
			L251.312,24L259.312,16z M252.688,48L240,60.688L227.312,48L240,35.312L252.688,48z M211.312,16h9.376l8,8L216,36.688L203.312,24
			L211.312,16z M204.688,48L192,60.688L179.312,48L192,35.312L204.688,48z M163.312,16h9.376l8,8L168,36.688L155.312,24L163.312,16z
			 M156.688,48L144,60.688L131.312,48L144,35.312L156.688,48z M115.312,16h9.376l8,8L120,36.688L107.312,24L115.312,16z M108.688,48
			L96,60.688L83.312,48L96,35.312L108.688,48z M67.312,16h9.376l8,8L72,36.688L59.312,24L67.312,16z M48,35.312L60.688,48L48,60.688
			L35.312,48L48,35.312z M30.608,17.92l6.08,6.08L24,36.688l-6.08-6.08C20.352,24.92,24.92,20.352,30.608,17.92z M16,67.312l8-8
			L36.688,72L24,84.688l-8-8V67.312z M16,115.312l8-8L36.688,120L24,132.688l-8-8V115.312z M16,163.312l8-8L36.688,168H16V163.312z
			 M432,336H48V216h384V336z M464,456c0,4.408-3.592,8-8,8c-4.408,0-8-3.592-8-8V208c0-4.416-3.584-8-8-8H40c-4.416,0-8,3.584-8,8
			v248c0,4.408-3.592,8-8,8s-8-3.592-8-8V184h448V456z M464,168h-20.688L456,155.312l8,8V168z M464,124.688l-8,8L443.312,120
			L456,107.312l8,8V124.688z M464,76.688l-8,8L443.312,72L456,59.312l8,8V76.688z"/>
	</g>
</g>
</svg>